<?xml version="1.0" encoding="UTF-8" standalone="no"?>
<!DOCTYPE svg PUBLIC "-//W3C//DTD SVG 1.1//EN"
 "http://www.w3.org/Graphics/SVG/1.1/DTD/svg11.dtd">
<!-- Generated by graphviz version 9.0.0 (20230911.1827)
 -->
<!-- Pages: 1 -->
<svg width="978pt" height="483pt"
 viewBox="0.00 0.00 977.53 482.75" xmlns="http://www.w3.org/2000/svg" xmlns:xlink="http://www.w3.org/1999/xlink">
<g id="graph0" class="graph" transform="scale(1 1) rotate(0) translate(4 478.75)">
<polygon fill="white" stroke="none" points="-4,4 -4,-478.75 973.53,-478.75 973.53,4 -4,4"/>
<!-- 0 -->
<g id="node1" class="node">
<title>0</title>
<ellipse fill="none" stroke="black" cx="403.51" cy="-456.75" rx="38.59" ry="18"/>
<text text-anchor="middle" x="403.51" y="-451.32" font-family="Times New Roman,serif" font-size="14.00">is_male</text>
</g>
<!-- 1 -->
<g id="node2" class="node">
<title>1</title>
<ellipse fill="none" stroke="black" cx="238.51" cy="-369" rx="49.57" ry="18"/>
<text text-anchor="middle" x="238.51" y="-363.57" font-family="Times New Roman,serif" font-size="14.00">pclass:{2}</text>
</g>
<!-- 0&#45;&gt;1 -->
<g id="edge1" class="edge">
<title>0&#45;&gt;1</title>
<path fill="none" stroke="#ff0000" d="M378.45,-442.73C351.24,-428.58 307.47,-405.84 276.12,-389.55"/>
<polygon fill="#ff0000" stroke="#ff0000" points="277.84,-386.5 267.36,-384.99 274.62,-392.71 277.84,-386.5"/>
<text text-anchor="middle" x="345.89" y="-407.45" font-family="Times New Roman,serif" font-size="14.00">yes</text>
</g>
<!-- 2 -->
<g id="node3" class="node">
<title>2</title>
<ellipse fill="none" stroke="black" cx="532.51" cy="-369" rx="49.57" ry="18"/>
<text text-anchor="middle" x="532.51" y="-363.57" font-family="Times New Roman,serif" font-size="14.00">pclass:{0}</text>
</g>
<!-- 0&#45;&gt;2 -->
<g id="edge2" class="edge">
<title>0&#45;&gt;2</title>
<path fill="none" stroke="#0000ff" d="M425.1,-441.4C445.56,-427.8 476.56,-407.19 500.01,-391.6"/>
<polygon fill="#0000ff" stroke="#0000ff" points="501.89,-394.56 508.28,-386.11 498.02,-388.73 501.89,-394.56"/>
<text text-anchor="middle" x="512.39" y="-407.45" font-family="Times New Roman,serif" font-size="14.00">no, missing</text>
</g>
<!-- 3 -->
<g id="node4" class="node">
<title>3</title>
<ellipse fill="none" stroke="black" cx="76.51" cy="-281.25" rx="76.51" ry="18"/>
<text text-anchor="middle" x="76.51" y="-275.82" font-family="Times New Roman,serif" font-size="14.00">leaf=0.723253548</text>
</g>
<!-- 1&#45;&gt;3 -->
<g id="edge3" class="edge">
<title>1&#45;&gt;3</title>
<path fill="none" stroke="#0000ff" d="M210.77,-353.8C198.48,-347.48 183.88,-339.92 170.76,-333 152.66,-323.45 132.69,-312.72 115.8,-303.6"/>
<polygon fill="#0000ff" stroke="#0000ff" points="117.53,-300.55 107.07,-298.87 114.2,-306.71 117.53,-300.55"/>
<text text-anchor="middle" x="203.39" y="-319.7" font-family="Times New Roman,serif" font-size="14.00">no, missing</text>
</g>
<!-- 4 -->
<g id="node5" class="node">
<title>4</title>
<ellipse fill="none" stroke="black" cx="238.51" cy="-281.25" rx="67.53" ry="18"/>
<text text-anchor="middle" x="238.51" y="-275.82" font-family="Times New Roman,serif" font-size="14.00">embarked_S&lt;1</text>
</g>
<!-- 1&#45;&gt;4 -->
<g id="edge4" class="edge">
<title>1&#45;&gt;4</title>
<path fill="none" stroke="#ff0000" d="M238.51,-350.65C238.51,-339.26 238.51,-324.09 238.51,-310.93"/>
<polygon fill="#ff0000" stroke="#ff0000" points="242.01,-311.09 238.51,-301.09 235.01,-311.09 242.01,-311.09"/>
<text text-anchor="middle" x="247.89" y="-319.7" font-family="Times New Roman,serif" font-size="14.00">yes</text>
</g>
<!-- 5 -->
<g id="node12" class="node">
<title>5</title>
<ellipse fill="none" stroke="black" cx="532.51" cy="-281.25" rx="55.06" ry="18"/>
<text text-anchor="middle" x="532.51" y="-275.82" font-family="Times New Roman,serif" font-size="14.00">age_div:{0}</text>
</g>
<!-- 2&#45;&gt;5 -->
<g id="edge11" class="edge">
<title>2&#45;&gt;5</title>
<path fill="none" stroke="#0000ff" d="M532.51,-350.65C532.51,-339.26 532.51,-324.09 532.51,-310.93"/>
<polygon fill="#0000ff" stroke="#0000ff" points="536.01,-311.09 532.51,-301.09 529.01,-311.09 536.01,-311.09"/>
<text text-anchor="middle" x="564.39" y="-319.7" font-family="Times New Roman,serif" font-size="14.00">no, missing</text>
</g>
<!-- 6 -->
<g id="node13" class="node">
<title>6</title>
<ellipse fill="none" stroke="black" cx="733.51" cy="-281.25" rx="41.08" ry="18"/>
<text text-anchor="middle" x="733.51" y="-275.82" font-family="Times New Roman,serif" font-size="14.00">is_alone</text>
</g>
<!-- 2&#45;&gt;6 -->
<g id="edge12" class="edge">
<title>2&#45;&gt;6</title>
<path fill="none" stroke="#ff0000" d="M563.92,-354.6C599.24,-339.53 656.64,-315.05 694.73,-298.8"/>
<polygon fill="#ff0000" stroke="#ff0000" points="695.71,-302.18 703.54,-295.04 692.96,-295.74 695.71,-302.18"/>
<text text-anchor="middle" x="660.89" y="-319.7" font-family="Times New Roman,serif" font-size="14.00">yes</text>
</g>
<!-- 7 -->
<g id="node6" class="node">
<title>7</title>
<ellipse fill="none" stroke="black" cx="88.51" cy="-193.5" rx="76.51" ry="18"/>
<text text-anchor="middle" x="88.51" y="-188.07" font-family="Times New Roman,serif" font-size="14.00">leaf=0.512398422</text>
</g>
<!-- 4&#45;&gt;7 -->
<g id="edge5" class="edge">
<title>4&#45;&gt;7</title>
<path fill="none" stroke="#ff0000" d="M211,-264.52C187.23,-250.93 152.64,-231.16 126.28,-216.09"/>
<polygon fill="#ff0000" stroke="#ff0000" points="128.35,-213.24 117.93,-211.32 124.87,-219.32 128.35,-213.24"/>
<text text-anchor="middle" x="186.89" y="-231.95" font-family="Times New Roman,serif" font-size="14.00">yes</text>
</g>
<!-- 8 -->
<g id="node7" class="node">
<title>8</title>
<ellipse fill="none" stroke="black" cx="238.51" cy="-193.5" rx="55.06" ry="18"/>
<text text-anchor="middle" x="238.51" y="-188.07" font-family="Times New Roman,serif" font-size="14.00">age_div:{0}</text>
</g>
<!-- 4&#45;&gt;8 -->
<g id="edge6" class="edge">
<title>4&#45;&gt;8</title>
<path fill="none" stroke="#0000ff" d="M238.51,-262.9C238.51,-251.51 238.51,-236.34 238.51,-223.18"/>
<polygon fill="#0000ff" stroke="#0000ff" points="242.01,-223.34 238.51,-213.34 235.01,-223.34 242.01,-223.34"/>
<text text-anchor="middle" x="270.39" y="-231.95" font-family="Times New Roman,serif" font-size="14.00">no, missing</text>
</g>
<!-- 13 -->
<g id="node8" class="node">
<title>13</title>
<ellipse fill="none" stroke="black" cx="211.51" cy="-105.75" rx="41.08" ry="18"/>
<text text-anchor="middle" x="211.51" y="-100.33" font-family="Times New Roman,serif" font-size="14.00">is_alone</text>
</g>
<!-- 8&#45;&gt;13 -->
<g id="edge7" class="edge">
<title>8&#45;&gt;13</title>
<path fill="none" stroke="#0000ff" d="M233.05,-175.15C229.43,-163.64 224.59,-148.28 220.42,-135.03"/>
<polygon fill="#0000ff" stroke="#0000ff" points="223.76,-134.01 217.42,-125.52 217.09,-136.11 223.76,-134.01"/>
<text text-anchor="middle" x="259.39" y="-144.2" font-family="Times New Roman,serif" font-size="14.00">no, missing</text>
</g>
<!-- 14 -->
<g id="node9" class="node">
<title>14</title>
<ellipse fill="none" stroke="black" cx="354.51" cy="-105.75" rx="84" ry="18"/>
<text text-anchor="middle" x="354.51" y="-100.33" font-family="Times New Roman,serif" font-size="14.00">leaf=&#45;0.0462466255</text>
</g>
<!-- 8&#45;&gt;14 -->
<g id="edge8" class="edge">
<title>8&#45;&gt;14</title>
<path fill="none" stroke="#ff0000" d="M265.19,-177.32C274.95,-171.46 285.95,-164.48 295.51,-157.5 306.46,-149.51 317.88,-139.99 327.73,-131.37"/>
<polygon fill="#ff0000" stroke="#ff0000" points="330,-134.04 335.14,-124.78 325.35,-128.81 330,-134.04"/>
<text text-anchor="middle" x="323.89" y="-144.2" font-family="Times New Roman,serif" font-size="14.00">yes</text>
</g>
<!-- 17 -->
<g id="node10" class="node">
<title>17</title>
<ellipse fill="none" stroke="black" cx="128.51" cy="-18" rx="72.02" ry="18"/>
<text text-anchor="middle" x="128.51" y="-12.57" font-family="Times New Roman,serif" font-size="14.00">leaf=0.16923216</text>
</g>
<!-- 13&#45;&gt;17 -->
<g id="edge9" class="edge">
<title>13&#45;&gt;17</title>
<path fill="none" stroke="#ff0000" d="M195.9,-88.62C183.73,-76.05 166.62,-58.37 152.68,-43.97"/>
<polygon fill="#ff0000" stroke="#ff0000" points="155.43,-41.78 145.96,-37.02 150.4,-46.64 155.43,-41.78"/>
<text text-anchor="middle" x="186.89" y="-56.45" font-family="Times New Roman,serif" font-size="14.00">yes</text>
</g>
<!-- 18 -->
<g id="node11" class="node">
<title>18</title>
<ellipse fill="none" stroke="black" cx="295.51" cy="-18" rx="76.51" ry="18"/>
<text text-anchor="middle" x="295.51" y="-12.57" font-family="Times New Roman,serif" font-size="14.00">leaf=0.352714837</text>
</g>
<!-- 13&#45;&gt;18 -->
<g id="edge10" class="edge">
<title>13&#45;&gt;18</title>
<path fill="none" stroke="#0000ff" d="M226.92,-89.02C239.27,-76.41 256.84,-58.48 271.1,-43.92"/>
<polygon fill="#0000ff" stroke="#0000ff" points="273.5,-46.47 278,-36.88 268.5,-41.58 273.5,-46.47"/>
<text text-anchor="middle" x="293.39" y="-56.45" font-family="Times New Roman,serif" font-size="14.00">no, missing</text>
</g>
<!-- 9 -->
<g id="node14" class="node">
<title>9</title>
<ellipse fill="none" stroke="black" cx="391.51" cy="-193.5" rx="79.51" ry="18"/>
<text text-anchor="middle" x="391.51" y="-188.07" font-family="Times New Roman,serif" font-size="14.00">leaf=&#45;0.382992685</text>
</g>
<!-- 5&#45;&gt;9 -->
<g id="edge13" class="edge">
<title>5&#45;&gt;9</title>
<path fill="none" stroke="#0000ff" d="M507.3,-264.92C485.3,-251.54 453.1,-231.96 428.24,-216.83"/>
<polygon fill="#0000ff" stroke="#0000ff" points="430.08,-213.86 419.72,-211.65 426.44,-219.84 430.08,-213.86"/>
<text text-anchor="middle" x="507.39" y="-231.95" font-family="Times New Roman,serif" font-size="14.00">no, missing</text>
</g>
<!-- 10 -->
<g id="node15" class="node">
<title>10</title>
<ellipse fill="none" stroke="black" cx="568.51" cy="-193.5" rx="79.51" ry="18"/>
<text text-anchor="middle" x="568.51" y="-188.07" font-family="Times New Roman,serif" font-size="14.00">leaf=&#45;0.121180467</text>
</g>
<!-- 5&#45;&gt;10 -->
<g id="edge14" class="edge">
<title>5&#45;&gt;10</title>
<path fill="none" stroke="#ff0000" d="M539.63,-263.31C544.57,-251.52 551.28,-235.55 556.98,-221.96"/>
<polygon fill="#ff0000" stroke="#ff0000" points="560.06,-223.67 560.71,-213.1 553.61,-220.96 560.06,-223.67"/>
<text text-anchor="middle" x="563.89" y="-231.95" font-family="Times New Roman,serif" font-size="14.00">yes</text>
</g>
<!-- 11 -->
<g id="node16" class="node">
<title>11</title>
<ellipse fill="none" stroke="black" cx="733.51" cy="-193.5" rx="67.53" ry="18"/>
<text text-anchor="middle" x="733.51" y="-188.07" font-family="Times New Roman,serif" font-size="14.00">embarked_S&lt;1</text>
</g>
<!-- 6&#45;&gt;11 -->
<g id="edge15" class="edge">
<title>6&#45;&gt;11</title>
<path fill="none" stroke="#ff0000" d="M733.51,-262.9C733.51,-251.51 733.51,-236.34 733.51,-223.18"/>
<polygon fill="#ff0000" stroke="#ff0000" points="737.01,-223.34 733.51,-213.34 730.01,-223.34 737.01,-223.34"/>
<text text-anchor="middle" x="742.89" y="-231.95" font-family="Times New Roman,serif" font-size="14.00">yes</text>
</g>
<!-- 12 -->
<g id="node17" class="node">
<title>12</title>
<ellipse fill="none" stroke="black" cx="894.51" cy="-193.5" rx="75.02" ry="18"/>
<text text-anchor="middle" x="894.51" y="-188.07" font-family="Times New Roman,serif" font-size="14.00">leaf=&#45;0.16446355</text>
</g>
<!-- 6&#45;&gt;12 -->
<g id="edge16" class="edge">
<title>6&#45;&gt;12</title>
<path fill="none" stroke="#0000ff" d="M759.02,-266.66C784.72,-252.98 824.74,-231.66 854.63,-215.74"/>
<polygon fill="#0000ff" stroke="#0000ff" points="856.23,-218.86 863.41,-211.07 852.94,-212.68 856.23,-218.86"/>
<text text-anchor="middle" x="860.39" y="-231.95" font-family="Times New Roman,serif" font-size="14.00">no, missing</text>
</g>
<!-- 15 -->
<g id="node18" class="node">
<title>15</title>
<ellipse fill="none" stroke="black" cx="559.51" cy="-105.75" rx="84" ry="18"/>
<text text-anchor="middle" x="559.51" y="-100.33" font-family="Times New Roman,serif" font-size="14.00">leaf=&#45;0.0874394998</text>
</g>
<!-- 11&#45;&gt;15 -->
<g id="edge17" class="edge">
<title>11&#45;&gt;15</title>
<path fill="none" stroke="#ff0000" d="M702.4,-177.17C674.39,-163.36 632.96,-142.95 601.92,-127.65"/>
<polygon fill="#ff0000" stroke="#ff0000" points="603.7,-124.62 593.18,-123.34 600.61,-130.9 603.7,-124.62"/>
<text text-anchor="middle" x="671.89" y="-144.2" font-family="Times New Roman,serif" font-size="14.00">yes</text>
</g>
<!-- 16 -->
<g id="node19" class="node">
<title>16</title>
<ellipse fill="none" stroke="black" cx="742.51" cy="-105.75" rx="81" ry="18"/>
<text text-anchor="middle" x="742.51" y="-100.33" font-family="Times New Roman,serif" font-size="14.00">leaf=0.0345608592</text>
</g>
<!-- 11&#45;&gt;16 -->
<g id="edge18" class="edge">
<title>11&#45;&gt;16</title>
<path fill="none" stroke="#0000ff" d="M735.33,-175.15C736.53,-163.76 738.12,-148.59 739.5,-135.43"/>
<polygon fill="#0000ff" stroke="#0000ff" points="742.97,-135.89 740.54,-125.58 736.01,-135.16 742.97,-135.89"/>
<text text-anchor="middle" x="771.39" y="-144.2" font-family="Times New Roman,serif" font-size="14.00">no, missing</text>
</g>
</g>
</svg>
