<?xml version="1.0" encoding="UTF-8" standalone="no"?>
<!DOCTYPE svg PUBLIC "-//W3C//DTD SVG 1.1//EN"
 "http://www.w3.org/Graphics/SVG/1.1/DTD/svg11.dtd">
<!-- Generated by graphviz version 9.0.0 (20230911.1827)
 -->
<!-- Pages: 1 -->
<svg width="722pt" height="220pt"
 viewBox="0.00 0.00 722.00 219.50" xmlns="http://www.w3.org/2000/svg" xmlns:xlink="http://www.w3.org/1999/xlink">
<g id="graph0" class="graph" transform="scale(1 1) rotate(0) translate(4 215.5)">
<polygon fill="white" stroke="none" points="-4,4 -4,-215.5 718,-215.5 718,4 -4,4"/>
<!-- 0 -->
<g id="node1" class="node">
<title>0</title>
<ellipse fill="none" stroke="black" cx="343.51" cy="-193.5" rx="38.59" ry="18"/>
<text text-anchor="middle" x="343.51" y="-188.07" font-family="Times New Roman,serif" font-size="14.00">is_male</text>
</g>
<!-- 1 -->
<g id="node2" class="node">
<title>1</title>
<ellipse fill="none" stroke="black" cx="252.51" cy="-105.75" rx="49.57" ry="18"/>
<text text-anchor="middle" x="252.51" y="-100.33" font-family="Times New Roman,serif" font-size="14.00">pclass:{2}</text>
</g>
<!-- 0&#45;&gt;1 -->
<g id="edge1" class="edge">
<title>0&#45;&gt;1</title>
<path fill="none" stroke="#ff0000" d="M326.82,-176.77C313.14,-163.88 293.56,-145.43 277.93,-130.7"/>
<polygon fill="#ff0000" stroke="#ff0000" points="280.5,-128.31 270.82,-124 275.7,-133.4 280.5,-128.31"/>
<text text-anchor="middle" x="315.89" y="-144.2" font-family="Times New Roman,serif" font-size="14.00">yes</text>
</g>
<!-- 2 -->
<g id="node3" class="node">
<title>2</title>
<ellipse fill="none" stroke="black" cx="435.51" cy="-105.75" rx="49.57" ry="18"/>
<text text-anchor="middle" x="435.51" y="-100.33" font-family="Times New Roman,serif" font-size="14.00">pclass:{0}</text>
</g>
<!-- 0&#45;&gt;2 -->
<g id="edge2" class="edge">
<title>0&#45;&gt;2</title>
<path fill="none" stroke="#0000ff" d="M359.96,-177.17C373.83,-164.24 393.91,-145.53 409.88,-130.64"/>
<polygon fill="#0000ff" stroke="#0000ff" points="412.23,-133.23 417.16,-123.85 407.46,-128.11 412.23,-133.23"/>
<text text-anchor="middle" x="430.39" y="-144.2" font-family="Times New Roman,serif" font-size="14.00">no, missing</text>
</g>
<!-- 3 -->
<g id="node4" class="node">
<title>3</title>
<ellipse fill="none" stroke="black" cx="76.51" cy="-18" rx="76.51" ry="18"/>
<text text-anchor="middle" x="76.51" y="-12.57" font-family="Times New Roman,serif" font-size="14.00">leaf=0.024108449</text>
</g>
<!-- 1&#45;&gt;3 -->
<g id="edge3" class="edge">
<title>1&#45;&gt;3</title>
<path fill="none" stroke="#0000ff" d="M223.84,-90.78C195.37,-76.91 151.37,-55.47 118.87,-39.64"/>
<polygon fill="#0000ff" stroke="#0000ff" points="120.64,-36.6 110.11,-35.37 117.57,-42.9 120.64,-36.6"/>
<text text-anchor="middle" x="212.39" y="-56.45" font-family="Times New Roman,serif" font-size="14.00">no, missing</text>
</g>
<!-- 4 -->
<g id="node5" class="node">
<title>4</title>
<ellipse fill="none" stroke="black" cx="252.51" cy="-18" rx="81" ry="18"/>
<text text-anchor="middle" x="252.51" y="-12.57" font-family="Times New Roman,serif" font-size="14.00">leaf=0.0108167678</text>
</g>
<!-- 1&#45;&gt;4 -->
<g id="edge4" class="edge">
<title>1&#45;&gt;4</title>
<path fill="none" stroke="#ff0000" d="M252.51,-87.4C252.51,-76.01 252.51,-60.84 252.51,-47.68"/>
<polygon fill="#ff0000" stroke="#ff0000" points="256.01,-47.84 252.51,-37.84 249.01,-47.84 256.01,-47.84"/>
<text text-anchor="middle" x="261.89" y="-56.45" font-family="Times New Roman,serif" font-size="14.00">yes</text>
</g>
<!-- 5 -->
<g id="node6" class="node">
<title>5</title>
<ellipse fill="none" stroke="black" cx="435.51" cy="-18" rx="84" ry="18"/>
<text text-anchor="middle" x="435.51" y="-12.57" font-family="Times New Roman,serif" font-size="14.00">leaf=&#45;0.0121195102</text>
</g>
<!-- 2&#45;&gt;5 -->
<g id="edge5" class="edge">
<title>2&#45;&gt;5</title>
<path fill="none" stroke="#0000ff" d="M435.51,-87.4C435.51,-76.01 435.51,-60.84 435.51,-47.68"/>
<polygon fill="#0000ff" stroke="#0000ff" points="439.01,-47.84 435.51,-37.84 432.01,-47.84 439.01,-47.84"/>
<text text-anchor="middle" x="467.39" y="-56.45" font-family="Times New Roman,serif" font-size="14.00">no, missing</text>
</g>
<!-- 6 -->
<g id="node7" class="node">
<title>6</title>
<ellipse fill="none" stroke="black" cx="625.51" cy="-18" rx="88.49" ry="18"/>
<text text-anchor="middle" x="625.51" y="-12.57" font-family="Times New Roman,serif" font-size="14.00">leaf=&#45;0.00426656893</text>
</g>
<!-- 2&#45;&gt;6 -->
<g id="edge6" class="edge">
<title>2&#45;&gt;6</title>
<path fill="none" stroke="#ff0000" d="M465.62,-91.16C496.48,-77.24 544.83,-55.41 580.29,-39.41"/>
<polygon fill="#ff0000" stroke="#ff0000" points="581.33,-42.78 589,-35.48 578.45,-36.4 581.33,-42.78"/>
<text text-anchor="middle" x="556.89" y="-56.45" font-family="Times New Roman,serif" font-size="14.00">yes</text>
</g>
</g>
</svg>
