<?xml version="1.0" encoding="UTF-8" standalone="no"?>
<!DOCTYPE svg PUBLIC "-//W3C//DTD SVG 1.1//EN"
 "http://www.w3.org/Graphics/SVG/1.1/DTD/svg11.dtd">
<!-- Generated by graphviz version 9.0.0 (20230911.1827)
 -->
<!-- Pages: 1 -->
<svg width="1117pt" height="385pt"
 viewBox="0.00 0.00 1116.82 385.00" xmlns="http://www.w3.org/2000/svg" xmlns:xlink="http://www.w3.org/1999/xlink">
<g id="graph0" class="graph" transform="scale(1 1) rotate(0) translate(4 381)">
<polygon fill="white" stroke="none" points="-4,4 -4,-381 1112.82,-381 1112.82,4 -4,4"/>
<!-- leaf0 -->
<g id="node1" class="node">
<title>leaf0</title>
<ellipse fill="none" stroke="black" cx="511.25" cy="-359" rx="62.1" ry="18"/>
<text text-anchor="start" x="473.75" y="-354.95" font-family="Times New Roman,serif" font-size="14.00">leaf 0: </text>
<text text-anchor="start" x="510.5" y="-354.95" font-family="Times New Roman,serif" font-weight="bold" font-size="14.00">&#45;0.310</text>
</g>
<!-- split3 -->
<g id="node2" class="node">
<title>split3</title>
<polygon fill="none" stroke="black" points="400.25,-337 262,-337 262,-301 400.25,-301 400.25,-337"/>
<text text-anchor="start" x="270" y="-314.95" font-family="Times New Roman,serif" font-weight="bold" font-size="14.00">embarked_S</text>
<text text-anchor="start" x="347.25" y="-314.95" font-family="Times New Roman,serif" font-size="14.00"> ≤</text>
<text text-anchor="start" x="358.5" y="-314.95" font-family="Times New Roman,serif" font-weight="bold" font-size="14.00">0.000</text>
</g>
<!-- split3&#45;&gt;leaf0 -->
<g id="edge1" class="edge">
<title>split3&#45;&gt;leaf0</title>
<path fill="none" stroke="black" d="M400.74,-334.41C417.14,-338.09 434.52,-341.99 450.49,-345.58"/>
<polygon fill="black" stroke="black" points="449.29,-348.9 459.81,-347.67 450.82,-342.07 449.29,-348.9"/>
<text text-anchor="middle" x="420.62" y="-342.45" font-family="Times New Roman,serif" font-size="14.00">yes</text>
</g>
<!-- leaf4 -->
<g id="node3" class="node">
<title>leaf4</title>
<ellipse fill="none" stroke="black" cx="511.25" cy="-319" rx="62.1" ry="18"/>
<text text-anchor="start" x="473.75" y="-314.95" font-family="Times New Roman,serif" font-size="14.00">leaf 4: </text>
<text text-anchor="start" x="510.5" y="-314.95" font-family="Times New Roman,serif" font-weight="bold" font-size="14.00">&#45;0.432</text>
</g>
<!-- split3&#45;&gt;leaf4 -->
<g id="edge2" class="edge">
<title>split3&#45;&gt;leaf4</title>
<path fill="none" stroke="black" d="M400.74,-319C412.7,-319 425.17,-319 437.24,-319"/>
<polygon fill="black" stroke="black" points="437.15,-322.5 447.15,-319 437.15,-315.5 437.15,-322.5"/>
<text text-anchor="middle" x="420.62" y="-321.45" font-family="Times New Roman,serif" font-size="14.00">no</text>
</g>
<!-- split1 -->
<g id="node4" class="node">
<title>split1</title>
<polygon fill="none" stroke="black" points="221.25,-278 148.25,-278 148.25,-242 221.25,-242 221.25,-278"/>
<text text-anchor="start" x="156.25" y="-255.95" font-family="Times New Roman,serif" font-weight="bold" font-size="14.00">pclass</text>
<text text-anchor="start" x="193.75" y="-255.95" font-family="Times New Roman,serif" font-size="14.00"> =</text>
<text text-anchor="start" x="205.75" y="-255.95" font-family="Times New Roman,serif" font-weight="bold" font-size="14.00">2</text>
</g>
<!-- split1&#45;&gt;split3 -->
<g id="edge3" class="edge">
<title>split1&#45;&gt;split3</title>
<path fill="none" stroke="black" d="M221.44,-274.58C237.42,-281.11 256.64,-288.97 274.44,-296.24"/>
<polygon fill="black" stroke="black" points="273.03,-299.45 283.61,-299.99 275.68,-292.97 273.03,-299.45"/>
<text text-anchor="middle" x="241.62" y="-287.45" font-family="Times New Roman,serif" font-size="14.00">yes</text>
</g>
<!-- split6 -->
<g id="node6" class="node">
<title>split6</title>
<polygon fill="none" stroke="black" points="367.62,-278 294.62,-278 294.62,-242 367.62,-242 367.62,-278"/>
<text text-anchor="start" x="302.62" y="-255.95" font-family="Times New Roman,serif" font-weight="bold" font-size="14.00">pclass</text>
<text text-anchor="start" x="340.12" y="-255.95" font-family="Times New Roman,serif" font-size="14.00"> =</text>
<text text-anchor="start" x="352.12" y="-255.95" font-family="Times New Roman,serif" font-weight="bold" font-size="14.00">0</text>
</g>
<!-- split1&#45;&gt;split6 -->
<g id="edge8" class="edge">
<title>split1&#45;&gt;split6</title>
<path fill="none" stroke="black" d="M221.44,-260C240.01,-260 262.95,-260 282.96,-260"/>
<polygon fill="black" stroke="black" points="282.83,-263.5 292.83,-260 282.83,-256.5 282.83,-263.5"/>
<text text-anchor="middle" x="241.62" y="-262.45" font-family="Times New Roman,serif" font-size="14.00">no</text>
</g>
<!-- leaf2 -->
<g id="node5" class="node">
<title>leaf2</title>
<ellipse fill="none" stroke="black" cx="511.25" cy="-279" rx="62.1" ry="18"/>
<text text-anchor="start" x="473.75" y="-274.95" font-family="Times New Roman,serif" font-size="14.00">leaf 2: </text>
<text text-anchor="start" x="510.5" y="-274.95" font-family="Times New Roman,serif" font-weight="bold" font-size="14.00">&#45;0.235</text>
</g>
<!-- split6&#45;&gt;leaf2 -->
<g id="edge4" class="edge">
<title>split6&#45;&gt;leaf2</title>
<path fill="none" stroke="black" d="M367.74,-263.8C388.7,-266.03 415.91,-268.94 440.94,-271.61"/>
<polygon fill="black" stroke="black" points="440.43,-275.07 450.75,-272.65 441.18,-268.11 440.43,-275.07"/>
<text text-anchor="middle" x="420.62" y="-272.45" font-family="Times New Roman,serif" font-size="14.00">yes</text>
</g>
<!-- split8 -->
<g id="node8" class="node">
<title>split8</title>
<polygon fill="none" stroke="black" points="566.88,-257 455.62,-257 455.62,-221 566.88,-221 566.88,-257"/>
<text text-anchor="start" x="463.62" y="-234.95" font-family="Times New Roman,serif" font-weight="bold" font-size="14.00">is_alone</text>
<text text-anchor="start" x="513.88" y="-234.95" font-family="Times New Roman,serif" font-size="14.00"> ≤</text>
<text text-anchor="start" x="525.12" y="-234.95" font-family="Times New Roman,serif" font-weight="bold" font-size="14.00">0.000</text>
</g>
<!-- split6&#45;&gt;split8 -->
<g id="edge7" class="edge">
<title>split6&#45;&gt;split8</title>
<path fill="none" stroke="black" d="M367.74,-255.8C389.59,-253.23 418.24,-249.85 444.12,-246.8"/>
<polygon fill="black" stroke="black" points="444.37,-250.29 453.89,-245.64 443.55,-243.34 444.37,-250.29"/>
<text text-anchor="middle" x="420.62" y="-252.45" font-family="Times New Roman,serif" font-size="14.00">no</text>
</g>
<!-- leaf7 -->
<g id="node7" class="node">
<title>leaf7</title>
<ellipse fill="none" stroke="black" cx="688.96" cy="-276" rx="62.1" ry="18"/>
<text text-anchor="start" x="651.46" y="-271.95" font-family="Times New Roman,serif" font-size="14.00">leaf 7: </text>
<text text-anchor="start" x="688.21" y="-271.95" font-family="Times New Roman,serif" font-weight="bold" font-size="14.00">&#45;0.252</text>
</g>
<!-- split8&#45;&gt;leaf7 -->
<g id="edge5" class="edge">
<title>split8&#45;&gt;leaf7</title>
<path fill="none" stroke="black" d="M567.36,-250.61C586.21,-254.57 607.4,-259.04 626.7,-263.1"/>
<polygon fill="black" stroke="black" points="625.82,-266.49 636.33,-265.13 627.27,-259.64 625.82,-266.49"/>
<text text-anchor="middle" x="601.88" y="-261.45" font-family="Times New Roman,serif" font-size="14.00">yes</text>
</g>
<!-- leaf9 -->
<g id="node9" class="node">
<title>leaf9</title>
<ellipse fill="none" stroke="black" cx="688.96" cy="-236" rx="62.1" ry="18"/>
<text text-anchor="start" x="651.46" y="-231.95" font-family="Times New Roman,serif" font-size="14.00">leaf 9: </text>
<text text-anchor="start" x="688.21" y="-231.95" font-family="Times New Roman,serif" font-weight="bold" font-size="14.00">&#45;0.288</text>
</g>
<!-- split8&#45;&gt;leaf9 -->
<g id="edge6" class="edge">
<title>split8&#45;&gt;leaf9</title>
<path fill="none" stroke="black" d="M567.36,-238.06C582.51,-237.8 599.17,-237.52 615.14,-237.24"/>
<polygon fill="black" stroke="black" points="615.17,-240.74 625.11,-237.07 615.05,-233.74 615.17,-240.74"/>
<text text-anchor="middle" x="601.88" y="-239.45" font-family="Times New Roman,serif" font-size="14.00">no</text>
</g>
<!-- split0 -->
<g id="node10" class="node">
<title>split0</title>
<polygon fill="none" stroke="black" points="107.5,-222 0,-222 0,-186 107.5,-186 107.5,-222"/>
<text text-anchor="start" x="8" y="-199.95" font-family="Times New Roman,serif" font-weight="bold" font-size="14.00">is_male</text>
<text text-anchor="start" x="54.5" y="-199.95" font-family="Times New Roman,serif" font-size="14.00"> ≤</text>
<text text-anchor="start" x="65.75" y="-199.95" font-family="Times New Roman,serif" font-weight="bold" font-size="14.00">0.000</text>
</g>
<!-- split0&#45;&gt;split1 -->
<g id="edge9" class="edge">
<title>split0&#45;&gt;split1</title>
<path fill="none" stroke="black" d="M97.35,-222.49C110.32,-228.12 124.63,-234.34 137.81,-240.06"/>
<polygon fill="black" stroke="black" points="136.14,-243.15 146.71,-243.92 138.93,-236.73 136.14,-243.15"/>
<text text-anchor="middle" x="127.88" y="-240.45" font-family="Times New Roman,serif" font-size="14.00">yes</text>
</g>
<!-- split2 -->
<g id="node16" class="node">
<title>split2</title>
<polygon fill="none" stroke="black" points="221.25,-190 148.25,-190 148.25,-154 221.25,-154 221.25,-190"/>
<text text-anchor="start" x="156.25" y="-167.95" font-family="Times New Roman,serif" font-weight="bold" font-size="14.00">pclass</text>
<text text-anchor="start" x="193.75" y="-167.95" font-family="Times New Roman,serif" font-size="14.00"> =</text>
<text text-anchor="start" x="205.75" y="-167.95" font-family="Times New Roman,serif" font-weight="bold" font-size="14.00">0</text>
</g>
<!-- split0&#45;&gt;split2 -->
<g id="edge26" class="edge">
<title>split0&#45;&gt;split2</title>
<path fill="none" stroke="black" d="M107.96,-190.8C117.54,-188.43 127.45,-185.97 136.83,-183.64"/>
<polygon fill="black" stroke="black" points="137.61,-187.05 146.47,-181.25 135.92,-180.26 137.61,-187.05"/>
<text text-anchor="middle" x="127.88" y="-190.45" font-family="Times New Roman,serif" font-size="14.00">no</text>
</g>
<!-- leaf1 -->
<g id="node11" class="node">
<title>leaf1</title>
<ellipse fill="none" stroke="black" cx="511.25" cy="-199" rx="62.1" ry="18"/>
<text text-anchor="start" x="473.75" y="-194.95" font-family="Times New Roman,serif" font-size="14.00">leaf 1: </text>
<text text-anchor="start" x="510.5" y="-194.95" font-family="Times New Roman,serif" font-weight="bold" font-size="14.00">&#45;0.514</text>
</g>
<!-- split5 -->
<g id="node12" class="node">
<title>split5</title>
<polygon fill="none" stroke="black" points="386.75,-190 275.5,-190 275.5,-154 386.75,-154 386.75,-190"/>
<text text-anchor="start" x="283.5" y="-167.95" font-family="Times New Roman,serif" font-weight="bold" font-size="14.00">is_alone</text>
<text text-anchor="start" x="333.75" y="-167.95" font-family="Times New Roman,serif" font-size="14.00"> ≤</text>
<text text-anchor="start" x="345" y="-167.95" font-family="Times New Roman,serif" font-weight="bold" font-size="14.00">0.000</text>
</g>
<!-- split5&#45;&gt;leaf1 -->
<g id="edge10" class="edge">
<title>split5&#45;&gt;leaf1</title>
<path fill="none" stroke="black" d="M387.02,-180.32C405.14,-183.07 425.48,-186.15 444.33,-189.01"/>
<polygon fill="black" stroke="black" points="443.63,-192.44 454.04,-190.48 444.68,-185.52 443.63,-192.44"/>
<text text-anchor="middle" x="420.62" y="-188.45" font-family="Times New Roman,serif" font-size="14.00">yes</text>
</g>
<!-- split12 -->
<g id="node14" class="node">
<title>split12</title>
<polygon fill="none" stroke="black" points="581.5,-177 441,-177 441,-141 581.5,-141 581.5,-177"/>
<text text-anchor="start" x="449" y="-154.95" font-family="Times New Roman,serif" font-weight="bold" font-size="14.00">embarked_C</text>
<text text-anchor="start" x="528.5" y="-154.95" font-family="Times New Roman,serif" font-size="14.00"> ≤</text>
<text text-anchor="start" x="539.75" y="-154.95" font-family="Times New Roman,serif" font-weight="bold" font-size="14.00">0.000</text>
</g>
<!-- split5&#45;&gt;split12 -->
<g id="edge13" class="edge">
<title>split5&#45;&gt;split12</title>
<path fill="none" stroke="black" d="M387.02,-167.99C400.41,-167.02 415.01,-165.95 429.34,-164.91"/>
<polygon fill="black" stroke="black" points="429.5,-168.4 439.22,-164.18 428.99,-161.42 429.5,-168.4"/>
<text text-anchor="middle" x="420.62" y="-167.45" font-family="Times New Roman,serif" font-size="14.00">no</text>
</g>
<!-- leaf6 -->
<g id="node13" class="node">
<title>leaf6</title>
<ellipse fill="none" stroke="black" cx="688.96" cy="-190" rx="62.1" ry="18"/>
<text text-anchor="start" x="651.46" y="-185.95" font-family="Times New Roman,serif" font-size="14.00">leaf 6: </text>
<text text-anchor="start" x="688.21" y="-185.95" font-family="Times New Roman,serif" font-weight="bold" font-size="14.00">&#45;0.560</text>
</g>
<!-- split12&#45;&gt;leaf6 -->
<g id="edge11" class="edge">
<title>split12&#45;&gt;leaf6</title>
<path fill="none" stroke="black" d="M581.95,-171.3C595.79,-173.74 610.27,-176.29 623.92,-178.7"/>
<polygon fill="black" stroke="black" points="623.21,-182.13 633.67,-180.42 624.43,-175.24 623.21,-182.13"/>
<text text-anchor="middle" x="601.88" y="-178.45" font-family="Times New Roman,serif" font-size="14.00">yes</text>
</g>
<!-- leaf13 -->
<g id="node15" class="node">
<title>leaf13</title>
<ellipse fill="none" stroke="black" cx="688.96" cy="-150" rx="66.71" ry="18"/>
<text text-anchor="start" x="648.08" y="-145.95" font-family="Times New Roman,serif" font-size="14.00">leaf 13: </text>
<text text-anchor="start" x="691.58" y="-145.95" font-family="Times New Roman,serif" font-weight="bold" font-size="14.00">&#45;0.554</text>
</g>
<!-- split12&#45;&gt;leaf13 -->
<g id="edge12" class="edge">
<title>split12&#45;&gt;leaf13</title>
<path fill="none" stroke="black" d="M581.95,-155.43C591.66,-154.93 601.68,-154.42 611.5,-153.92"/>
<polygon fill="black" stroke="black" points="611.6,-157.42 621.41,-153.41 611.24,-150.43 611.6,-157.42"/>
<text text-anchor="middle" x="601.88" y="-156.45" font-family="Times New Roman,serif" font-size="14.00">no</text>
</g>
<!-- split2&#45;&gt;split5 -->
<g id="edge14" class="edge">
<title>split2&#45;&gt;split5</title>
<path fill="none" stroke="black" d="M221.44,-172C234.35,-172 249.37,-172 264.05,-172"/>
<polygon fill="black" stroke="black" points="263.66,-175.5 273.66,-172 263.66,-168.5 263.66,-175.5"/>
<text text-anchor="middle" x="241.62" y="-174.45" font-family="Times New Roman,serif" font-size="14.00">yes</text>
</g>
<!-- split4 -->
<g id="node18" class="node">
<title>split4</title>
<polygon fill="none" stroke="black" points="372.5,-137 289.75,-137 289.75,-101 372.5,-101 372.5,-137"/>
<text text-anchor="start" x="297.75" y="-114.95" font-family="Times New Roman,serif" font-weight="bold" font-size="14.00">age_div</text>
<text text-anchor="start" x="345" y="-114.95" font-family="Times New Roman,serif" font-size="14.00"> =</text>
<text text-anchor="start" x="357" y="-114.95" font-family="Times New Roman,serif" font-weight="bold" font-size="14.00">0</text>
</g>
<!-- split2&#45;&gt;split4 -->
<g id="edge25" class="edge">
<title>split2&#45;&gt;split4</title>
<path fill="none" stroke="black" d="M221.44,-158.9C238.76,-152.54 259.89,-144.78 278.89,-137.81"/>
<polygon fill="black" stroke="black" points="279.89,-141.17 288.07,-134.44 277.48,-134.6 279.89,-141.17"/>
<text text-anchor="middle" x="241.62" y="-156.45" font-family="Times New Roman,serif" font-size="14.00">no</text>
</g>
<!-- leaf3 -->
<g id="node17" class="node">
<title>leaf3</title>
<ellipse fill="none" stroke="black" cx="511.25" cy="-119" rx="62.1" ry="18"/>
<text text-anchor="start" x="473.75" y="-114.95" font-family="Times New Roman,serif" font-size="14.00">leaf 3: </text>
<text text-anchor="start" x="510.5" y="-114.95" font-family="Times New Roman,serif" font-weight="bold" font-size="14.00">&#45;0.546</text>
</g>
<!-- split4&#45;&gt;leaf3 -->
<g id="edge15" class="edge">
<title>split4&#45;&gt;leaf3</title>
<path fill="none" stroke="black" d="M372.99,-119C392.15,-119 415.56,-119 437.58,-119"/>
<polygon fill="black" stroke="black" points="437.43,-122.5 447.43,-119 437.43,-115.5 437.43,-122.5"/>
<text text-anchor="middle" x="420.62" y="-121.45" font-family="Times New Roman,serif" font-size="14.00">yes</text>
</g>
<!-- split7 -->
<g id="node24" class="node">
<title>split7</title>
<polygon fill="none" stroke="black" points="547.75,-97 474.75,-97 474.75,-61 547.75,-61 547.75,-97"/>
<text text-anchor="start" x="482.75" y="-74.95" font-family="Times New Roman,serif" font-weight="bold" font-size="14.00">pclass</text>
<text text-anchor="start" x="520.25" y="-74.95" font-family="Times New Roman,serif" font-size="14.00"> =</text>
<text text-anchor="start" x="532.25" y="-74.95" font-family="Times New Roman,serif" font-weight="bold" font-size="14.00">2</text>
</g>
<!-- split4&#45;&gt;split7 -->
<g id="edge24" class="edge">
<title>split4&#45;&gt;split7</title>
<path fill="none" stroke="black" d="M372.99,-109.82C399.89,-103.78 435.19,-95.86 463.25,-89.55"/>
<polygon fill="black" stroke="black" points="463.93,-92.99 472.92,-87.38 462.4,-86.16 463.93,-92.99"/>
<text text-anchor="middle" x="420.62" y="-102.45" font-family="Times New Roman,serif" font-size="14.00">no</text>
</g>
<!-- leaf5 -->
<g id="node19" class="node">
<title>leaf5</title>
<ellipse fill="none" stroke="black" cx="865.54" cy="-138" rx="62.1" ry="18"/>
<text text-anchor="start" x="828.04" y="-133.95" font-family="Times New Roman,serif" font-size="14.00">leaf 5: </text>
<text text-anchor="start" x="864.79" y="-133.95" font-family="Times New Roman,serif" font-weight="bold" font-size="14.00">&#45;0.628</text>
</g>
<!-- split10 -->
<g id="node20" class="node">
<title>split10</title>
<polygon fill="none" stroke="black" points="744.58,-116 633.33,-116 633.33,-80 744.58,-80 744.58,-116"/>
<text text-anchor="start" x="641.33" y="-93.95" font-family="Times New Roman,serif" font-weight="bold" font-size="14.00">is_alone</text>
<text text-anchor="start" x="691.58" y="-93.95" font-family="Times New Roman,serif" font-size="14.00"> ≤</text>
<text text-anchor="start" x="702.83" y="-93.95" font-family="Times New Roman,serif" font-weight="bold" font-size="14.00">0.000</text>
</g>
<!-- split10&#45;&gt;leaf5 -->
<g id="edge16" class="edge">
<title>split10&#45;&gt;leaf5</title>
<path fill="none" stroke="black" d="M744.72,-110.55C763.77,-114.91 785.25,-119.83 804.7,-124.29"/>
<polygon fill="black" stroke="black" points="803.88,-127.69 814.41,-126.51 805.44,-120.87 803.88,-127.69"/>
<text text-anchor="middle" x="776.04" y="-121.45" font-family="Times New Roman,serif" font-size="14.00">yes</text>
</g>
<!-- split11 -->
<g id="node22" class="node">
<title>split11</title>
<polygon fill="none" stroke="black" points="934.66,-116 796.41,-116 796.41,-80 934.66,-80 934.66,-116"/>
<text text-anchor="start" x="804.41" y="-93.95" font-family="Times New Roman,serif" font-weight="bold" font-size="14.00">embarked_S</text>
<text text-anchor="start" x="881.66" y="-93.95" font-family="Times New Roman,serif" font-size="14.00"> ≤</text>
<text text-anchor="start" x="892.91" y="-93.95" font-family="Times New Roman,serif" font-weight="bold" font-size="14.00">0.000</text>
</g>
<!-- split10&#45;&gt;split11 -->
<g id="edge19" class="edge">
<title>split10&#45;&gt;split11</title>
<path fill="none" stroke="black" d="M744.72,-98C757.45,-98 771.26,-98 784.83,-98"/>
<polygon fill="black" stroke="black" points="784.62,-101.5 794.62,-98 784.62,-94.5 784.62,-101.5"/>
<text text-anchor="middle" x="776.04" y="-100.45" font-family="Times New Roman,serif" font-size="14.00">no</text>
</g>
<!-- leaf11 -->
<g id="node21" class="node">
<title>leaf11</title>
<ellipse fill="none" stroke="black" cx="1042.12" cy="-118" rx="66.71" ry="18"/>
<text text-anchor="start" x="1001.24" y="-113.95" font-family="Times New Roman,serif" font-size="14.00">leaf 11: </text>
<text text-anchor="start" x="1044.74" y="-113.95" font-family="Times New Roman,serif" font-weight="bold" font-size="14.00">&#45;0.631</text>
</g>
<!-- split11&#45;&gt;leaf11 -->
<g id="edge17" class="edge">
<title>split11&#45;&gt;leaf11</title>
<path fill="none" stroke="black" d="M935.03,-105.85C946.21,-107.13 957.82,-108.46 969.08,-109.75"/>
<polygon fill="black" stroke="black" points="968.35,-113.19 978.69,-110.85 969.15,-106.23 968.35,-113.19"/>
<text text-anchor="middle" x="955.04" y="-111.45" font-family="Times New Roman,serif" font-size="14.00">yes</text>
</g>
<!-- leaf12 -->
<g id="node23" class="node">
<title>leaf12</title>
<ellipse fill="none" stroke="black" cx="1042.12" cy="-78" rx="66.71" ry="18"/>
<text text-anchor="start" x="1001.24" y="-73.95" font-family="Times New Roman,serif" font-size="14.00">leaf 12: </text>
<text text-anchor="start" x="1044.74" y="-73.95" font-family="Times New Roman,serif" font-weight="bold" font-size="14.00">&#45;0.620</text>
</g>
<!-- split11&#45;&gt;leaf12 -->
<g id="edge18" class="edge">
<title>split11&#45;&gt;leaf12</title>
<path fill="none" stroke="black" d="M935.03,-90.15C946.21,-88.87 957.82,-87.54 969.08,-86.25"/>
<polygon fill="black" stroke="black" points="969.15,-89.77 978.69,-85.15 968.35,-82.81 969.15,-89.77"/>
<text text-anchor="middle" x="955.04" y="-90.45" font-family="Times New Roman,serif" font-size="14.00">no</text>
</g>
<!-- split7&#45;&gt;split10 -->
<g id="edge20" class="edge">
<title>split7&#45;&gt;split10</title>
<path fill="none" stroke="black" d="M548.23,-82.89C569.39,-85.18 596.8,-88.14 621.73,-90.84"/>
<polygon fill="black" stroke="black" points="621.16,-94.3 631.47,-91.89 621.91,-87.34 621.16,-94.3"/>
<text text-anchor="middle" x="601.88" y="-91.45" font-family="Times New Roman,serif" font-size="14.00">yes</text>
</g>
<!-- split9 -->
<g id="node26" class="node">
<title>split9</title>
<polygon fill="none" stroke="black" points="744.58,-76 633.33,-76 633.33,-40 744.58,-40 744.58,-76"/>
<text text-anchor="start" x="641.33" y="-53.95" font-family="Times New Roman,serif" font-weight="bold" font-size="14.00">is_alone</text>
<text text-anchor="start" x="691.58" y="-53.95" font-family="Times New Roman,serif" font-size="14.00"> ≤</text>
<text text-anchor="start" x="702.83" y="-53.95" font-family="Times New Roman,serif" font-weight="bold" font-size="14.00">0.000</text>
</g>
<!-- split7&#45;&gt;split9 -->
<g id="edge23" class="edge">
<title>split7&#45;&gt;split9</title>
<path fill="none" stroke="black" d="M548.23,-74.7C569.39,-72.17 596.8,-68.89 621.73,-65.92"/>
<polygon fill="black" stroke="black" points="621.96,-69.41 631.48,-64.75 621.13,-62.46 621.96,-69.41"/>
<text text-anchor="middle" x="601.88" y="-71.45" font-family="Times New Roman,serif" font-size="14.00">no</text>
</g>
<!-- leaf8 -->
<g id="node25" class="node">
<title>leaf8</title>
<ellipse fill="none" stroke="black" cx="865.54" cy="-58" rx="62.1" ry="18"/>
<text text-anchor="start" x="828.04" y="-53.95" font-family="Times New Roman,serif" font-size="14.00">leaf 8: </text>
<text text-anchor="start" x="864.79" y="-53.95" font-family="Times New Roman,serif" font-weight="bold" font-size="14.00">&#45;0.661</text>
</g>
<!-- split9&#45;&gt;leaf8 -->
<g id="edge21" class="edge">
<title>split9&#45;&gt;leaf8</title>
<path fill="none" stroke="black" d="M744.72,-58C759.6,-58 775.96,-58 791.68,-58"/>
<polygon fill="black" stroke="black" points="791.47,-61.5 801.47,-58 791.47,-54.5 791.47,-61.5"/>
<text text-anchor="middle" x="776.04" y="-60.45" font-family="Times New Roman,serif" font-size="14.00">yes</text>
</g>
<!-- leaf10 -->
<g id="node27" class="node">
<title>leaf10</title>
<ellipse fill="none" stroke="black" cx="865.54" cy="-18" rx="66.71" ry="18"/>
<text text-anchor="start" x="824.66" y="-13.95" font-family="Times New Roman,serif" font-size="14.00">leaf 10: </text>
<text text-anchor="start" x="868.16" y="-13.95" font-family="Times New Roman,serif" font-weight="bold" font-size="14.00">&#45;0.636</text>
</g>
<!-- split9&#45;&gt;leaf10 -->
<g id="edge22" class="edge">
<title>split9&#45;&gt;leaf10</title>
<path fill="none" stroke="black" d="M744.72,-45.45C763.02,-41.26 783.55,-36.56 802.38,-32.24"/>
<polygon fill="black" stroke="black" points="803.1,-35.67 812.06,-30.02 801.53,-28.84 803.1,-35.67"/>
<text text-anchor="middle" x="776.04" y="-43.45" font-family="Times New Roman,serif" font-size="14.00">no</text>
</g>
</g>
</svg>
